# xmcd CD database file
#
# Track frame offsets:
#	150
#	16922
#	34000
#	52742
#	69705
#	87575
#	108735
#
# Disc length: 1724 seconds
#
# Revision: 0
# Processed by: cddbd v1.5.2PL0 Copyright (c) Steve Scherf et al.
# Submitted via: CD2WAV32(JP) R3.22
#
DISCID=5606ba07
DTITLE=内藤やす子 - 本人歌唱
DYEAR=2001
DGENRE=J-POP(J)
TTITLE0=弟よ
TTITLE1=想い出ぼろぼろ
TTITLE2=六本木ララバイ
TTITLE3=街角すみれ
TTITLE4=こころ乱して運命かえて
TTITLE5=ひきょう
TTITLE6=メリージェーン
EXTD=
EXTT0=
EXTT1=
EXTT2=
EXTT3=
EXTT4=
EXTT5=
EXTT6=
PLAYORDER=
